<mxfile host="app.diagrams.net" modified="2024-03-25T01:56:03.608Z" agent="Mozilla/5.0 (Windows NT 10.0; Win64; x64) AppleWebKit/537.36 (KHTML, like Gecko) Chrome/123.0.0.0 Safari/537.36" version="24.1.0" etag="cM4pF0pO7H-3s6lYoMED" type="github">
  <diagram name="第 1 页" id="aFmFAVz-obkmWg39rBWm">
    <mxGraphModel>
      <root>
        <mxCell id="0" />
        <mxCell id="1" parent="0" />
      </root>
    </mxGraphModel>
  </diagram>
</mxfile>
